<?xml version="1.0" encoding="utf-8"?>
<!-- Generator: Adobe Illustrator 15.0.0, SVG Export Plug-In . SVG Version: 6.00 Build 0)  -->
<!DOCTYPE svg PUBLIC "-//W3C//DTD SVG 1.1//EN" "http://www.w3.org/Graphics/SVG/1.1/DTD/svg11.dtd">
<svg version="1.1" id="Layer_1" xmlns="http://www.w3.org/2000/svg" xmlns:xlink="http://www.w3.org/1999/xlink" x="0px" y="0px"
	 width="600px" height="400px" viewBox="0 0 600 400" enable-background="new 0 0 600 400" xml:space="preserve">
<g>
	<path d="M148.504,164.048c-5.977,0-10.441-3.888-10.441-9.073c0-3.312,2.088-5.616,5.761-5.688
		c2.016,2.665,5.041,5.257,6.769,5.257c2.304,0,3.672-3.385,5.256-10.225c2.808-12.169,3.384-15.985,4.464-19.37
		c-5.76,2.736-14.041,5.041-20.45,5.041c-6.48,0-10.585-3.672-10.585-10.801c0-8.712,7.201-16.417,14.617-16.417
		c4.393,0,8.569,0.576,14.833,2.017c17.929,4.104,22.826,4.968,31.035,5.112c0.504,0.36,0.936,1.512,0.936,2.376
		c0,4.896-4.464,7.921-9.865,7.921c-3.097,0-3.96-0.144-7.777-1.296c-2.088,6.121-5.041,23.042-7.272,30.459
		C162.833,159.296,156.353,164.048,148.504,164.048z M158.657,119.98c1.224,0,2.521,0.36,3.024,1.081
		c0.432-1.296,1.656-3.384,2.592-4.321c-13.321-4.392-18.506-5.544-21.602-5.544c-2.736,0-4.536,1.8-4.536,4.681
		c0,3.744,2.664,5.472,6.984,5.472C150.304,121.349,156.929,119.98,158.657,119.98z"/>
	<path d="M197.319,134.454c0,1.44-0.792,3.168-1.944,5.472c-1.656,3.312-3.096,6.841-3.096,8.641c0,1.008,0.288,1.728,1.224,1.728
		c2.016,0,7.057-4.464,10.873-10.441c1.8,0,3.024,1.152,3.024,2.232c0,4.537-12.313,17.354-18.938,17.354
		c-4.392,0-6.84-1.944-6.84-6.048c0-4.752,3.528-10.873,3.528-12.745c0-0.864-0.792-1.296-2.376-1.944
		c-2.232,4.249-3.888,6.769-6.264,9.433c-1.8,0-2.88-1.296-2.88-2.808c0-0.576,0.144-1.224,0.504-1.729
		c1.872-2.664,3.24-4.464,4.464-7.417c-0.576-0.648-1.08-1.584-1.08-2.952c0-5.041,7.561-12.169,11.593-12.169
		c2.448,0,4.104,1.152,4.104,3.096c0,0.504-0.072,1.008-0.216,1.44c-1.728,0.936-3.24,2.016-4.176,3.6
		c0.792,0.432,2.16,0.937,3.384,1.296C196.455,131.718,197.319,132.726,197.319,134.454z"/>
	<path d="M208.622,158c-4.104,0-7.128-3.384-7.128-9.937c0-10.801,8.929-22.106,16.129-22.106c1.008,0,1.512,0.144,1.872,0.504
		l0.216-4.176c0.576-0.648,1.512-0.937,2.521-0.937c4.896,0,7.561,3.312,7.561,5.833c0,0.936-0.216,2.736-0.792,4.752
		c-2.521,9.073-3.457,13.609-3.457,15.481c0,1.44,0.288,1.656,0.864,1.656c1.44,0,5.185-2.736,9.793-9.217
		c1.512,0,2.664,0.936,2.664,2.232c0,4.681-11.953,16.273-17.138,16.273c-3.168,0-5.184-1.296-5.184-5.904
		c0-0.792,0.072-1.728,0.216-2.808C214.454,156.2,211.142,158,208.622,158z M219.135,131.142c-3.601,2.304-7.057,8.281-7.057,13.825
		c0,2.664,0.864,2.952,1.872,2.952c1.008,0,2.016-0.72,2.88-1.8L219.135,131.142z"/>
	<path d="M234.901,136.614c0-4.249,6.409-11.809,10.873-11.809c2.448,0,3.096,0.864,3.096,3.024c0,1.8-0.936,6.84-2.88,10.369
		c5.256-9.073,10.225-12.313,13.393-12.313c3.312,0,4.968,2.16,4.968,4.968c0,1.944-0.576,4.464-2.088,7.921
		c-1.296,3.168-3.601,8.281-3.601,10.081c0,0.792,0.36,1.081,1.008,1.081c1.44,0,5.977-3.672,10.441-10.081
		c1.368,0,2.808,0.936,2.808,2.376c0,4.537-12.169,16.706-18.793,16.706c-4.249,0-5.688-1.872-5.688-5.833
		c0-4.752,3.672-12.025,3.672-13.609c0-0.576-0.288-0.864-0.864-0.864c-0.648,0-3.024,1.08-5.833,4.968
		c-1.008,5.544-1.44,8.785-1.656,13.681c-0.72,0.72-1.224,0.936-2.88,0.936c-4.032,0-6.984-3.816-7.057-8.137
		c0-2.736,0.576-5.688,1.8-9C235.045,139.71,234.901,138.054,234.901,136.614z"/>
	<path d="M317.272,109.972c0,2.448-1.368,5.617-6.553,9.865c-1.944,6.984-6.769,26.93-6.769,28.73c0,0.792,0.36,1.08,1.008,1.08
		c2.232,0,6.48-4.104,10.225-9.937c1.369,0,2.736,1.008,2.736,2.448c0,5.472-11.664,16.777-18.937,16.777
		c-4.176,0-5.688-1.8-5.688-5.544c0-4.824,2.232-13.177,2.88-16.201c1.08-5.113,2.088-10.657,3.168-16.346
		c0.072-0.432,0.144-0.936,0.288-1.44c-3.744-0.576-6.984-0.864-8.281-0.864c-2.664,0-4.248,1.8-4.392,5.256
		c4.176,0,6.552,0.864,6.552,3.024c0,2.736-2.952,6.841-5.688,6.841c-1.512,0-3.024-1.08-4.248-2.665
		c0.432,1.152,1.008,2.376,1.656,3.672c3.024,6.121,4.32,10.369,4.32,13.465c0,7.489-5.616,11.377-12.745,11.377
		c-5.617,0-10.873-3.816-10.873-10.945c0-4.249,1.152-11.233,4.68-11.233c2.521,0,4.537,3.241,4.537,5.041
		c0,1.512-0.648,2.592-1.872,3.96c0.576,3.168,3.024,5.329,4.68,5.329c0.72,0,1.512-0.432,1.512-1.656
		c0-3.672-4.32-13.825-4.32-18.29c0-3.024,1.584-5.617,5.472-7.272c-0.144-0.72-0.216-1.512-0.216-2.232
		c0-7.128,4.464-12.169,12.169-12.169c2.376,0,4.249,0.504,9.072,2.448c1.945-4.681,4.753-7.921,8.569-7.921
		C313.312,104.571,317.272,107.092,317.272,109.972z"/>
	<path d="M319.429,158c-4.104,0-7.128-3.384-7.128-9.937c0-10.801,8.928-22.106,16.129-22.106c1.008,0,1.512,0.144,1.872,0.504
		l0.216-4.176c0.576-0.648,1.512-0.937,2.521-0.937c4.896,0,7.561,3.312,7.561,5.833c0,0.936-0.216,2.736-0.792,4.752
		c-2.521,9.073-3.457,13.609-3.457,15.481c0,1.44,0.289,1.656,0.865,1.656c1.439,0,5.184-2.736,9.793-9.217
		c1.512,0,2.664,0.936,2.664,2.232c0,4.681-11.953,16.273-17.139,16.273c-3.168,0-5.184-1.296-5.184-5.904
		c0-0.792,0.072-1.728,0.216-2.808C325.262,156.2,321.949,158,319.429,158z M329.941,131.142c-3.6,2.304-7.057,8.281-7.057,13.825
		c0,2.664,0.864,2.952,1.873,2.952c1.008,0,2.016-0.72,2.88-1.8L329.941,131.142z"/>
	<path d="M348.372,134.094c-1.44-0.144-2.665-0.288-2.665-1.872c0-2.232,1.585-4.248,4.537-4.32
		c0.072-1.512,0.145-2.664,0.432-5.329c0.648-6.336,4.537-10.873,9.434-10.873c3.312,0,4.824,1.152,4.824,4.248
		c0,2.232-0.864,3.96-4.681,11.593c2.232-0.072,5.257-0.288,6.192-0.504c0.864,0.648,1.368,1.944,1.368,3.024
		c0,2.736-1.8,4.825-4.177,4.825c-1.656,0-3.168-0.072-5.256-0.432c-1.944,7.92-2.52,11.953-2.52,13.033
		c0,1.728,0.432,2.52,1.943,2.52c2.952,0,7.921-3.457,12.817-10.369c1.368,0,2.88,1.008,2.88,2.448
		c0,4.249-11.017,17.138-19.297,17.138c-5.545,0-9.289-2.88-9.289-9.505C344.916,147.631,345.636,143.239,348.372,134.094z"/>
	<path d="M369.756,138.054c0-4.249,6.408-11.809,10.873-11.809c3.312,0,3.6,1.8,3.6,4.608c0,1.872-1.225,4.896-2.52,7.921
		c-2.018,4.968-2.953,7.272-2.953,8.929c0,0.792,0.36,1.08,1.008,1.08c1.009,0,4.249-2.304,9.073-9.145
		c1.368,0,2.808,1.152,2.808,2.592c0,4.537-11.448,16.706-18.072,16.706c-4.249,0-5.689-1.872-5.689-5.833
		c0-3.168,0.793-6.121,2.592-10.585C369.899,141.15,369.756,139.495,369.756,138.054z M383.293,107.236c2.88,0,6.12,3.168,6.12,5.4
		c0,1.728-1.368,4.536-4.825,8.785c-2.808,0-4.824-2.088-4.824-6.265C379.764,109.324,380.988,107.236,383.293,107.236z"/>
	<path d="M412.813,134.31c0,3.456-0.72,6.265-2.232,10.225c0.216,0.216,0.72,0.504,1.44,0.504c2.088,0,4.176-1.656,6.553-5.473
		c1.296,0,2.809,1.08,2.809,2.592c0,3.024-4.825,9.793-10.945,9.793c-1.297,0-2.088-0.216-2.881-0.72
		c-3.456,4.68-7.272,7.272-12.312,7.272c-5.113,0-9.145-3.384-9.145-10.441c0-11.953,7.92-23.042,15.553-23.042
		c1.873,0,4.177,0.792,4.248,3.168c0.721-0.72,1.369-1.008,2.521-1.008C411.373,127.181,412.813,131.07,412.813,134.31z
		 M398.916,149.936c1.729,0,3.457-1.656,4.753-4.896c-0.576-2.232-0.792-4.32-0.792-6.265c0-2.448,0.504-6.265,1.584-8.353
		c-4.465,2.088-8.137,9.073-8.137,14.978C396.324,148.927,397.62,149.936,398.916,149.936z"/>
	<path d="M417.346,136.614c0-4.249,6.409-11.809,10.873-11.809c2.449,0,3.097,0.864,3.097,3.024c0,1.8-0.937,6.84-2.88,10.369
		c5.256-9.073,10.225-12.313,13.393-12.313c3.312,0,4.969,2.16,4.969,4.968c0,1.944-0.576,4.464-2.088,7.921
		c-1.297,3.168-3.601,8.281-3.601,10.081c0,0.792,0.36,1.081,1.009,1.081c1.439,0,5.977-3.672,10.44-10.081
		c1.368,0,2.808,0.936,2.808,2.376c0,4.537-12.168,16.706-18.793,16.706c-4.248,0-5.688-1.872-5.688-5.833
		c0-4.752,3.672-12.025,3.672-13.609c0-0.576-0.288-0.864-0.864-0.864c-0.647,0-3.023,1.08-5.832,4.968
		c-1.008,5.544-1.44,8.785-1.656,13.681c-0.721,0.72-1.225,0.936-2.881,0.936c-4.031,0-6.984-3.816-7.057-8.137
		c0-2.736,0.576-5.688,1.801-9C417.49,139.71,417.346,138.054,417.346,136.614z"/>
	<path d="M244.659,192.124c12.889,0.936,17.498,7.993,17.498,16.633c0,14.617-13.753,26.282-25.346,26.786
		c-3.528,10.009-9.433,15.625-17.354,15.625c-4.968,0-8.064-2.88-8.064-7.2c0-2.88,2.448-5.544,5.041-5.688
		c1.512,1.656,3.024,2.664,4.392,2.664c2.304,0,4.104-3.456,5.977-10.225c2.304-8.425,4.896-20.234,6.697-27.723
		c-4.104,0.721-8.209,2.592-10.225,4.465c-1.584,0-3.312-1.297-3.312-3.816c0-4.681,6.696-9.793,16.345-11.233
		c0.576-2.376,3.888-4.177,6.192-4.177C244.515,188.235,244.659,188.811,244.659,192.124z M242.643,203.068
		c-0.72,6.049-2.016,15.409-3.6,23.546c0.36,0.072,0.792,0.072,1.008,0.072c6.265,0,10.801-6.985,10.801-14.761
		C250.852,207.893,249.196,204.293,242.643,203.068z"/>
	<path d="M267.193,244.4c-4.104,0-7.128-3.385-7.128-9.938c0-10.801,8.929-22.105,16.129-22.105c1.008,0,1.512,0.144,1.872,0.504
		l0.216-4.177c0.576-0.647,1.512-0.937,2.521-0.937c4.896,0,7.561,3.312,7.561,5.833c0,0.937-0.216,2.736-0.792,4.753
		c-2.521,9.072-3.457,13.609-3.457,15.48c0,1.44,0.288,1.656,0.864,1.656c1.44,0,5.185-2.736,9.793-9.217
		c1.512,0,2.664,0.937,2.664,2.232c0,4.681-11.953,16.273-17.138,16.273c-3.168,0-5.184-1.296-5.184-5.904
		c0-0.792,0.072-1.729,0.216-2.809C273.025,242.6,269.713,244.4,267.193,244.4z M277.706,217.541
		c-3.601,2.305-7.057,8.281-7.057,13.826c0,2.664,0.864,2.951,1.872,2.951c1.008,0,2.016-0.719,2.88-1.799L277.706,217.541z"/>
	<path d="M315.074,220.854c0,1.44-0.792,3.168-1.944,5.473c-1.655,3.312-3.097,6.841-3.097,8.641c0,1.008,0.289,1.729,1.225,1.729
		c2.016,0,7.057-4.465,10.873-10.441c1.801,0,3.024,1.152,3.024,2.232c0,4.537-12.313,17.354-18.938,17.354
		c-4.392,0-6.84-1.943-6.84-6.049c0-4.752,3.528-10.873,3.528-12.744c0-0.865-0.792-1.297-2.376-1.945
		c-2.232,4.249-3.888,6.77-6.264,9.434c-1.8,0-2.88-1.297-2.88-2.809c0-0.576,0.144-1.224,0.504-1.729
		c1.872-2.664,3.24-4.464,4.464-7.416c-0.576-0.648-1.08-1.584-1.08-2.952c0-5.04,7.561-12.169,11.593-12.169
		c2.449,0,4.104,1.152,4.104,3.096c0,0.504-0.071,1.008-0.216,1.44c-1.729,0.937-3.24,2.017-4.176,3.601
		c0.791,0.432,2.16,0.936,3.384,1.296C314.21,218.117,315.074,219.125,315.074,220.854z"/>
	<path d="M323.712,220.494c-1.44-0.145-2.665-0.288-2.665-1.873c0-2.231,1.585-4.248,4.537-4.32
		c0.072-1.512,0.145-2.664,0.432-5.328c0.648-6.336,4.537-10.873,9.434-10.873c3.312,0,4.824,1.152,4.824,4.248
		c0,2.232-0.864,3.961-4.681,11.594c2.232-0.072,5.257-0.288,6.192-0.504c0.864,0.648,1.368,1.943,1.368,3.023
		c0,2.736-1.8,4.825-4.177,4.825c-1.656,0-3.168-0.072-5.256-0.433c-1.944,7.921-2.52,11.953-2.52,13.033
		c0,1.729,0.432,2.521,1.943,2.521c2.952,0,7.921-3.456,12.817-10.369c1.368,0,2.88,1.009,2.88,2.448
		c0,4.248-11.017,17.138-19.297,17.138c-5.545,0-9.289-2.88-9.289-9.505C320.256,234.031,320.976,229.639,323.712,220.494z"/>
	<path d="M347.256,261.321c-5.041,0-9.072-3.168-9.072-8.208c0-3.529,2.016-6.77,5.256-6.77c0.504,0,1.368,0.217,1.872,0.36
		c0.504,4.32,1.8,6.841,2.952,6.841c1.08,0,1.656-0.864,1.656-2.736c0-2.305-1.584-8.857-3.168-14.617
		c-1.368-4.896-1.656-5.761-2.017-7.488c-0.36-1.729-0.504-3.529-0.504-5.4c0-6.338,5.04-12.025,10.44-12.025
		c2.736,0,4.105,1.008,4.105,3.168s-1.656,5.185-3.385,7.057c0,2.809,0.359,5.328,1.801,11.161
		c4.896-6.265,5.544-7.993,5.544-11.306c0-1.512-1.368-5.4-2.232-6.912c0.504-2.376,2.952-3.6,4.753-3.6
		c4.031,0,6.191,4.104,6.191,8.424c0,4.537-3.384,12.385-12.312,20.666c0.288,2.016,0.36,5.616,0.36,7.057
		C359.497,256.569,353.809,261.321,347.256,261.321z"/>
</g>
</svg>
